<svg xmlns="http://www.w3.org/2000/svg" xml:space="preserve" x="0px" y="0px" style="fill:#fff" viewBox="0 0 612 134.73"><path d="M241.99 40.76c-1.82 0-3.54-.21-5.17-.63-1.63-.42-3.01-.96-4.13-1.61-1.12-.66-2.01-1.24-2.68-1.76s-1.23-1.03-1.68-1.53l3.32-3.51c2.86 2.82 6.24 4.23 10.12 4.23 2.3 0 3.98-.38 5.04-1.13s1.6-1.7 1.6-2.85c0-.33-.04-.64-.11-.92s-.19-.53-.36-.75-.32-.42-.45-.61c-.13-.18-.36-.35-.68-.52-.33-.17-.57-.29-.72-.38-.16-.08-.44-.19-.85-.31-.41-.13-.69-.22-.83-.27-.14-.06-.45-.14-.94-.25-.48-.11-.77-.18-.85-.21a53.3 53.3 0 0 0-2.55-.63c-1.11-.25-2.06-.49-2.87-.73s-1.61-.52-2.4-.86c-3.4-1.39-5.1-3.65-5.1-6.78 0-1.7.57-3.19 1.72-4.48 1.15-1.28 2.58-2.23 4.3-2.85 1.71-.61 3.55-.92 5.51-.92 2.24 0 4.42.36 6.53 1.09 2.11.73 3.86 1.69 5.25 2.89l-2.55 3.77c-2.75-2.07-5.81-3.1-9.19-3.1-1.82 0-3.33.29-4.53.86-1.21.57-1.81 1.44-1.81 2.62 0 1 .48 1.79 1.45 2.36s2.69 1.14 5.19 1.69c3.57.78 6.13 1.59 7.66 2.43 2.95 1.59 4.42 3.91 4.42 6.95 0 1.48-.35 2.8-1.06 3.98-.71 1.17-1.64 2.09-2.81 2.74-1.16.66-2.41 1.15-3.74 1.49s-2.69.49-4.05.49zM284.95 11.01h4.89v29.25h-5.15V19.84l-9.57 12.93-9.52-12.97v20.46h-5.1V11.01h4.72l9.87 13.64 9.86-13.64zM230.34 90.48V61.23h22.42v4.73h-17.23v6.7h12.76v4.77h-12.76v8.29h17.44v4.77l-22.63-.01zM259.85 90.48V61.23h4.72l16.04 20.51.04-20.51h5.1v29.25h-4.68l-16.12-20.59v20.59h-5.1zM301.33 90.48V66h-9.36v-4.77h23.95V66h-9.36v24.48h-5.23zM322.13 90.48V61.23h22.42v4.73h-17.23v6.7h12.76v4.77h-12.76v8.29h17.44v4.77l-22.63-.01zM351.65 90.48V61.23h15.19c1.53 0 2.88.27 4.04.8s2.05 1.24 2.66 2.13c.61.89 1.06 1.83 1.36 2.8.3.98.45 2 .45 3.05 0 1.87-.47 3.6-1.4 5.19-.94 1.59-2.4 2.66-4.38 3.22l7.36 12.05h-5.78l-6.93-11.63h-7.36v11.63l-5.21.01zm5.18-16.4h9.49c1.25 0 2.2-.36 2.85-1.09.65-.73.98-1.71.98-2.97 0-1.2-.31-2.16-.94-2.89-.62-.73-1.52-1.09-2.68-1.09h-9.7v8.04zM388.74 90.48V66h-9.36v-4.77h23.95V66h-9.36v24.48h-5.23zM403.15 90.48l13.87-29.42h4.55l13.87 29.42h-5.53l-3.15-6.82h-15.14l-3.23 6.82h-5.24zm10.68-11.47h10.76l-5.32-11.47-5.44 11.47zM440.67 90.48V61.23h5.19v29.25h-5.19zM454.5 90.48V61.23h4.72l16.04 20.51.04-20.51h5.1v29.25h-4.68L459.6 69.89v20.59h-5.1zM513.19 61.23h4.89v29.25h-5.15V70.06l-9.57 12.93-9.53-12.97v20.46h-5.1V61.23h4.72l9.87 13.64 9.87-13.64zM526.42 90.48V61.23h22.42v4.73h-17.23v6.7h12.76v4.77h-12.76v8.29h17.44v4.77l-22.63-.01zM555.94 90.48V61.23h4.72l16.04 20.51.04-20.51h5.1v29.25h-4.68l-16.12-20.59v20.59h-5.1zM597.41 90.48V66h-9.36v-4.77H612V66h-9.36v24.48h-5.23zM166.73 81.64c0 7.67 6.24 13.91 13.91 13.91s13.91-6.24 13.91-13.91l-.01-54.6c0-9.39-7.64-17.04-17.04-17.04-2.89 0-5.68.72-8.15 2.06C167.82 5.24 161.71.12 154.44.12c-4.08 0-7.92 1.59-10.81 4.48l-35.45 35.45L74.61 6.86c-9.15-9.15-24.03-9.15-33.17 0a23.849 23.849 0 0 0-3.07 3.78h-.04c-6.27 0-12.16 2.44-16.59 6.87-9.15 9.15-9.15 24.03 0 33.17l46.13 46.13c3.86 3.86 5.99 9 5.99 14.47 0 3.95-1.11 7.73-3.19 10.98-3.84-.76-7.51-2.62-10.48-5.59L20.87 77.34c-2.31-2.31-5.38-3.58-8.65-3.58s-6.34 1.27-8.65 3.58C1.27 79.64 0 82.71 0 85.98s1.27 6.34 3.58 8.65l33.24 33.24c4.43 4.43 10.32 6.87 16.59 6.87s12.16-2.44 16.59-6.87c.75-.75 1.43-1.53 2.06-2.35.86.09 1.73.14 2.61.14 6.27 0 12.16-2.44 16.59-6.87s6.87-10.32 6.87-16.59-2.44-12.16-6.87-16.59l-47.7-47.7c-6.54-6.54-7.72-16.46-3.53-24.21 4.82.39 9.31 2.46 12.77 5.92l29.69 29.69c5.7 5.7 14.97 5.7 20.67 0l5.04-5.04 4.11 4.06c6.63 6.63 17.41 6.63 24.03 0l30.38-30.38.01 63.69zm3-66.23v-.06c2.28-1.53 4.97-2.35 7.78-2.35 7.74 0 14.04 6.3 14.04 14.04l.01 54.6c0 6.02-4.9 10.91-10.91 10.91s-10.91-4.9-10.91-10.91l-.01-66.23zM67.87 125.74c-7.98 7.98-20.96 7.98-28.93 0L5.7 92.5C3.96 90.76 3 88.44 3 85.98s.96-4.78 2.7-6.52 4.06-2.7 6.52-2.7 4.78.96 6.52 2.7l39.32 39.32c2.98 2.98 6.63 5.06 10.61 6.11-.25.29-.52.57-.8.85zM41.44 40.03l47.69 47.69c7.98 7.98 7.98 20.96 0 28.93a20.34 20.34 0 0 1-15.18 5.97c1.91-3.44 2.92-7.32 2.92-11.35 0-6.27-2.44-12.16-6.87-16.59L23.86 48.56c-3.86-3.86-5.99-9-5.99-14.47 0-5.46 2.13-10.6 5.99-14.47 3.47-3.47 7.98-5.54 12.82-5.93-3.94 8.66-2.35 19.24 4.76 26.34zm59.6 7.17c-4.53 4.53-11.9 4.53-16.43 0L54.92 17.51c-3.59-3.59-8.13-5.87-13.05-6.61.52-.67 1.08-1.31 1.69-1.92C51.53 1 64.51 1 72.49 8.99l33.57 33.19-5.02 5.02zm64.42-32.21-31.24 31.24c-5.46 5.46-14.33 5.46-19.8-.01l-4.11-4.06 35.44-35.44a12.2 12.2 0 0 1 8.69-3.6c6.27 0 11.45 4.72 12.19 10.79-.4.34-.8.7-1.17 1.08zM180.72 103.38c-8.26 0-14.96 6.7-14.96 14.96s6.7 14.96 14.96 14.96 14.96-6.7 14.96-14.96c0-8.26-6.7-14.96-14.96-14.96zm0 26.92c-6.59 0-11.96-5.36-11.96-11.96s5.36-11.96 11.96-11.96 11.96 5.36 11.96 11.96-5.37 11.96-11.96 11.96z"/></svg>