<svg xmlns="http://www.w3.org/2000/svg" xmlns:xlink="http://www.w3.org/1999/xlink" width="844.65887pt" height="225pt" viewBox="0 0 844.65889 225.00001"><symbol id="a" transform="translate(-28.045 179.106)"><path d="M-2147483500-2147483500Z"/></symbol><use xlink:href="#a" width="100%" height="100%" transform="matrix(16 0 0 -16 34359737000 -34359734000)"/><path fill="#050000" d="M833.292 0H11.367C5.096 0 0 5.08 0 11.367v202.266C0 219.92 5.096 225 11.367 225h821.925c6.27 0 11.367-5.08 11.367-11.367V11.367C844.659 5.08 839.563 0 833.292 0M619.691 206.728H22.225a3.953 3.953 0 0 1-3.953-3.953V22.225a3.953 3.953 0 0 1 3.953-3.953h597.466zm206.695-3.953a3.953 3.953 0 0 1-3.952 3.953H637.947V18.272h184.487a3.953 3.953 0 0 1 3.952 3.953z"/><path fill="#fff" d="M22.225 18.272a3.953 3.953 0 0 0-3.953 3.953v180.55a3.953 3.953 0 0 0 3.953 3.953h597.466V18.272z"/><path fill="#0863cf" d="M822.434 18.272H637.947v188.456h184.487a3.953 3.953 0 0 0 3.952-3.953V22.225a3.953 3.953 0 0 0-3.952-3.953"/><path fill="#050000" d="M90.29 168.708h2.493c17.67 0 32.02-13.732 32.02-30.624v-28.13a1.846 1.846 0 0 0-1.841-1.858H93.227a1.846 1.846 0 0 0-1.841 1.857v14.415c0 1.032.825 1.857 1.841 1.857h11.748v12.796c0 6.302-5.747 11.414-12.811 11.414h-1.556c-7.064 0-12.811-5.191-12.811-11.557V86.077c0-6.287 5.747-11.398 12.811-11.398h1.556c6.921 0 12.033 4.905 12.732 12.223a1.845 1.845 0 0 0 1.841 1.667h16.177c.508 0 1-.206 1.35-.571.349-.365.523-.857.508-1.365-.921-17.892-14.066-30.386-31.99-30.386h-2.491c-17.828 0-32.338 13.732-32.338 30.608v51.086c0 16.67 14.811 30.767 32.338 30.767M152.126 167.146h15.987a1.843 1.843 0 0 0 1.841-1.842v-35.338h8.128l15.463 36.053a1.831 1.831 0 0 0 1.683 1.127h17.526c.619 0 1.206-.318 1.54-.842.349-.524.397-1.174.143-1.746l-16.828-38.497c7.779-4.763 12.811-13.526 12.811-22.337V84.197c0-14.795-12.224-26.384-27.813-26.384h-30.48a1.843 1.843 0 0 0-1.842 1.841v105.65c0 1.016.825 1.842 1.841 1.842m17.828-91.06h12.351c4.382 0 7.954 3.285 7.954 7.334v20.94c0 4.047-3.572 7.333-7.954 7.333h-12.35zM269.31 168.708h2.492c17.669 0 32.02-13.732 32.02-30.624v-51.23c0-16.875-14.351-30.607-32.02-30.607h-2.493c-17.748 0-32.179 13.732-32.179 30.608v51.086c0 16.955 14.43 30.767 32.18 30.767m-12.336-82.79c0-6.286 5.747-11.398 12.812-11.398h1.714c6.97 0 12.653 5.112 12.653 11.398v53.103c0 6.302-5.747 11.414-12.812 11.414h-1.555c-6.954 0-12.812-5.302-12.812-11.557zM361.63 168.708h2.493c17.828 0 32.338-13.732 32.338-30.624v-78.44a1.843 1.843 0 0 0-1.842-1.84h-16.304a1.843 1.843 0 0 0-1.841 1.84v78.917c0 6.54-5.747 11.874-12.812 11.874h-1.555c-7.16 0-12.97-5.397-12.97-12.033V59.645a1.846 1.846 0 0 0-1.858-1.842h-16.13a1.846 1.846 0 0 0-1.857 1.842v78.296c0 16.955 14.51 30.767 32.338 30.767M425.338 167.147h15.669a1.846 1.846 0 0 0 1.857-1.841l-.016-49.976-1.08-18.002h.62l5.667 17.59 19.813 51.054c.27.715.952 1.175 1.714 1.175h17.352a1.856 1.856 0 0 0 1.857-1.841V59.656a1.856 1.856 0 0 0-1.857-1.842h-15.67a1.846 1.846 0 0 0-1.856 1.842l.015 49.8 1.08 18.178h-.62l-5.81-18.241-19.669-50.404a1.822 1.822 0 0 0-1.715-1.175h-17.351a1.843 1.843 0 0 0-1.842 1.842v105.65c0 1.016.826 1.841 1.842 1.841M518.441 167.146h29.703c17.653 0 32.02-13.669 32.02-30.465v-48.42c0-16.795-14.367-30.448-32.02-30.448h-29.703a1.843 1.843 0 0 0-1.841 1.841v105.65c0 1.016.825 1.842 1.841 1.842m17.828-91.06h11.415c6.826 0 12.176 5.063 12.176 11.556v49.817c0 6.398-5.35 11.414-12.176 11.414h-11.415z"/><path fill="#fff" d="m772.63 164.4-29.258-53.66 27.353-50.197c.682-1.222-.223-2.73-1.62-2.73h-18.05c-.762 0-1.444.397-1.81 1.063l-28.273 51.865-29.259 53.658c-.682 1.239.223 2.747 1.62 2.747h18.066c.746 0 1.429-.413 1.794-1.08l18.97-34.783 18.972 34.783a2.072 2.072 0 0 0 1.81 1.08h18.05c1.412 0 2.301-1.508 1.635-2.747M715.093 58.878a2.032 2.032 0 0 0-1.794-1.063h-18.066c-1.413 0-2.302 1.508-1.635 2.73l20.304 37.069c.032.047.127.047.16 0l11.08-20.336c.032-.048.032-.112 0-.127z"/></svg>