<svg xmlns="http://www.w3.org/2000/svg" xmlns:xlink="http://www.w3.org/1999/xlink" width="641.52277pt" height="75pt" viewBox="0 0 641.52278 75.000002"><symbol id="a" transform="translate(-153.857 -486.673)"><path d="M-2147483500-2147483500Z"/></symbol><use xlink:href="#a" width="100%" height="100%" transform="matrix(16 0 0 -16 34359739000 -34359745000)"/><path d="M459.067 22.28h13.593v1.427c0 10.723-.008 21.439.008 32.154.007.893.122 1.817.343 2.68.695 2.686 2.595 4.052 5.22 4.525 3.801.687 7.327-.137 10.7-1.885.688-.359.81-.855.81-1.557-.023-11.967-.015-23.927-.015-35.902v-1.328c.885-.236 12.043-.297 13.44-.068v50.998c-.763.229-7.884.29-9.487.069-.382-1.527-.763-3.084-1.175-4.748-.237.145-.435.23-.58.367-4.099 3.839-8.999 5.632-14.57 5.747-2.618.046-5.182-.138-7.709-.939-4.9-1.565-7.876-4.969-9.403-9.754-.84-2.633-1.167-5.358-1.167-8.12-.016-10.754-.008-21.516-.008-32.27zM338.58 43.032c-.068-1-.129-1.779-.182-2.557-.123-1.778-.435-3.51-1.138-5.152-.732-1.687-1.908-2.969-3.61-3.717-1.816-.809-3.74-.877-5.655-.564-2.984.48-4.877 2.366-6.068 5.037-.961 2.152-1.259 4.45-1.358 6.96 5.96 0 11.89.008 18.012-.007m12.44 9.22h-30.338c.107 2.38.618 4.556 1.801 6.54 1.725 2.885 4.435 4.335 7.625 4.969 3.48.687 6.96.412 10.426-.313 2.327-.489 4.602-1.13 6.9-2.175 1.007 3.045 2.006 6.075 3.014 9.128-1.298.916-2.702 1.45-4.114 1.954-3.663 1.335-7.449 2.22-11.334 2.465-4.808.297-9.57-.107-14.127-1.87-5.175-2-8.884-5.556-11.135-10.616-1.489-3.343-2.229-6.87-2.443-10.495a69.418 69.418 0 0 1-.145-5.19c.046-4.327.718-8.548 2.39-12.562 3.281-7.877 9.18-12.319 17.668-13.227 3.976-.427 7.907-.107 11.67 1.397 4.159 1.671 7.227 4.549 9.303 8.502 1.984 3.763 2.923 7.808 3.122 12.036.076 1.58.183 3.16.137 4.74-.046 1.526-.267 3.053-.42 4.716M583.088 42.976c.404-1.977-.45-6.625-1.374-8.243-1.046-1.84-2.51-3.06-4.572-3.564-1.343-.328-2.701-.359-4.045-.198-1.976.213-3.633 1.122-4.938 2.67-1.564 1.856-2.22 4.076-2.595 6.397-.16.946-.19 1.908-.29 2.938zm12.646 9.258h-30.399c.153.939.252 1.778.42 2.61 1 5.137 4.236 7.968 9.266 8.937 3.03.588 6.06.42 9.09-.122 2.747-.488 5.434-1.19 8.052-2.366l3.052 9.174c-.763.39-1.465.824-2.213 1.13-5.762 2.381-11.746 3.587-17.981 3.251-3.9-.214-7.694-.946-11.243-2.71-4.693-2.327-7.853-6.006-9.738-10.837-1.351-3.465-1.985-7.083-2.1-10.8-.03-1.091-.167-2.182-.129-3.266.145-4.61.74-9.144 2.58-13.433 3.076-7.19 8.441-11.524 16.157-12.768 4.503-.726 8.96-.443 13.234 1.297 3.649 1.48 6.465 3.969 8.51 7.32 2.244 3.678 3.336 7.723 3.656 11.974.176 2.29.176 4.595.153 6.892-.008 1.19-.23 2.389-.367 3.717M406.09 73.459h-13.318v-1.366c0-10.563 0-21.134-.016-31.704 0-.97-.084-1.962-.252-2.924-.42-2.373-1.808-3.922-4.16-4.564-1.61-.442-3.258-.587-4.922-.496-2.648.138-5.22.702-7.739 1.512-.32.099-.626.259-1.015.427v39.092h-13.066c-.206-.779-.29-49.533-.069-51.166h9.334c.603 1.564 1.229 3.16 1.84 4.732 1.61-1.061 3.098-2.153 4.686-3.053 3.976-2.275 8.25-3.48 12.86-3.213 3.488.19 6.777 1.045 9.578 3.251 2.847 2.244 4.442 5.259 5.343 8.693.733 2.755.939 5.572.946 8.395.023 10.533.008 21.058.008 31.59 0 .221-.015.443-.038.794M602.685 71.146c.916-3.496 1.801-6.908 2.702-10.365 1.61.511 3.106 1 4.602 1.465 2.992.94 6.045 1.61 9.174 1.817 1.687.107 3.389.023 5.068-.115.763-.06 1.526-.404 2.251-.702 2.794-1.152 2.71-5.594.756-6.983-.886-.626-1.801-1.267-2.794-1.687-2-.862-4.052-1.61-6.105-2.358-2.725-1-5.404-2.076-7.884-3.64-3.939-2.489-5.763-6.122-5.946-10.678-.076-2.198 0-4.374.748-6.472 1.336-3.732 3.831-6.434 7.304-8.274 3.099-1.64 6.426-2.343 9.9-2.427 4.594-.122 9.104.458 13.462 1.924 1.71.564 3.366 1.267 5.106 1.93l-3.724 9.793c-.329-.13-.58-.199-.802-.306-3.907-1.877-8.029-2.8-12.356-2.8-1.565 0-3.076.274-4.465 1.045-1.641.9-2.458 2.267-2.42 4.152.023 1.015.497 1.793 1.191 2.473 1.13 1.106 2.526 1.786 3.954 2.373 2.015.832 4.083 1.542 6.12 2.32 2.649 1.008 5.236 2.145 7.549 3.809 3.076 2.213 4.93 5.152 5.32 8.945.305 2.984.091 5.945-.97 8.792-1.389 3.71-4.014 6.213-7.601 7.777-2.878 1.252-5.923 1.779-9.022 1.9-7.029.276-13.814-.938-20.393-3.388-.198-.076-.404-.175-.725-.32M421.008 32.393h-7.998v-9.159c2.587-.32 5.228-.641 7.96-.977V12.076c4.541-.97 9.014-1.924 13.639-2.916v13.036h15.096v10.143h-14.99c-.045.39-.106.672-.106.954-.015 7.701-.046 15.402.023 23.095.008 1.374.343 2.763.717 4.091.481 1.74 1.763 2.64 3.55 2.84 2.64.29 5.166-.321 7.67-1.046.64-.184 1.274-.405 1.992-.634.137.305.274.565.366.84.847 2.572 1.687 5.144 2.526 7.716.283.878.275.885-.519 1.305-3.549 1.87-7.365 2.847-11.326 3.244-2.862.274-5.716.26-8.525-.542-4.205-1.199-6.922-3.961-8.426-7.991-1.214-3.251-1.626-6.64-1.64-10.075-.031-7.403-.009-14.798-.009-22.194zM253.072 24.143a6037.31 6037.31 0 0 1 13.25-3.786c3.838 13.166 7.586 26.293 11.448 39.573.152-.328.275-.526.343-.732 1.885-6.503 3.778-13.013 5.67-19.516 1.795-6.174 3.58-12.356 5.382-18.53.084-.283.19-.566.328-.97 4.32 1.282 8.586 2.549 13.02 3.862-5.976 16.531-11.914 32.97-17.859 49.426h-13.715c-5.938-16.379-11.868-32.758-17.867-49.327M234.039 49.33c-.069-1.26-.107-3.664-.336-6.053-.244-2.633-.908-5.19-2.145-7.555-1.793-3.473-4.503-5.824-8.44-6.495a18.351 18.351 0 0 0-3.825-.214c-3.709.183-6.746 1.702-8.952 4.747-1.71 2.374-2.595 5.068-3.137 7.915-.588 3.09-.572 6.22-.48 9.341.083 2.71.51 5.396 1.442 7.968 1.229 3.381 3.198 6.137 6.563 7.678 1.931.893 3.97 1.122 6.068 1.077 5.29-.107 8.983-2.61 11.166-7.388 1.435-3.13 1.885-6.473 2.076-11.021m-36.161-.909c-.13-3.732.305-7.456 1.373-11.097 1.03-3.48 2.702-6.624 5.251-9.242 2.748-2.832 6.076-4.686 9.937-5.495 4.42-.932 8.83-.886 13.189.381 5.258 1.542 9.136 4.808 11.746 9.586 1.908 3.488 2.816 7.281 3.205 11.212.267 2.671.313 5.342.122 8.006-.282 4.083-1.015 8.067-2.885 11.769-2.755 5.45-7.036 9.036-13.012 10.471-4.9 1.168-9.8 1.107-14.6-.48-5.977-1.97-9.946-6.099-12.235-11.869-1.672-4.22-2.236-8.655-2.091-13.242M178.16 50.037c-.267-.038-.412-.084-.557-.084-3.504.03-7.014.023-10.51.13-1.923.06-3.808.442-5.602 1.205-1.961.832-3.404 2.168-4.182 4.183-.84 2.183-.893 4.419-.435 6.663.61 3.007 2.366 4.663 5.365 5.19.634.114 1.275.16 1.916.175 2.175.046 4.228-.542 6.281-1.221 2.526-.84 4.8-2.122 6.877-3.8.595-.49.908-1.008.862-1.825-.069-1.236-.015-2.48-.015-3.732zm8.151 23.53h-6.365c-.328-1.733-.657-3.442-1.008-5.32-.648.443-1.19.81-1.725 1.19-3.625 2.573-7.601 4.313-12.028 4.878-3.19.412-6.327.168-9.304-1.153-3.655-1.633-5.9-4.503-6.9-8.319-.938-3.564-.877-7.159.283-10.67 1.267-3.846 3.969-6.426 7.625-8.029a21.786 21.786 0 0 1 8.113-1.84c3.885-.121 7.77-.09 11.654-.136h1.504c0-1.038.068-1.977-.015-2.9-.16-1.718-.237-3.473-.657-5.13-1.068-4.213-3.778-6.388-8.105-6.815-3.137-.313-6.167.198-9.151 1.053-2.023.573-3.992 1.313-6.075 2.015-.802-1.954-1.634-3.961-2.52-6.121 1.52-.68 2.932-1.366 4.39-1.961 4.128-1.664 8.44-2.496 12.898-2.435 2.572.03 5.098.374 7.54 1.282 4.068 1.519 6.785 4.35 8.327 8.373a21.048 21.048 0 0 1 1.359 6.38c.107 2.076.152 4.144.16 6.213.015 9.326 0 18.653 0 27.98zM77.426 50.052c-.245-.054-.352-.1-.45-.1-3.512.039-7.015.031-10.526.13a16.233 16.233 0 0 0-5.083.985c-2.434.9-4.19 2.496-4.945 5.037a11.998 11.998 0 0 0-.206 6.129c.633 2.793 2.328 4.51 5.136 5.03 1.069.205 2.19.312 3.251.198 4.282-.481 8.167-2 11.617-4.618.9-.679 1.373-1.404 1.213-2.541-.076-.595-.007-1.206-.007-1.809zm8.15 23.507h-6.273c-.343-1.77-.68-3.496-1.03-5.304-1.061.725-2 1.42-2.977 2.03-3.327 2.083-6.884 3.556-10.815 4.037-2.915.359-5.792.183-8.555-.87-3.458-1.328-5.9-3.74-7.16-7.235-1.365-3.809-1.442-7.701-.312-11.548 1.29-4.396 4.335-7.22 8.555-8.83 2.916-1.122 5.954-1.603 9.067-1.656 3.32-.054 6.64-.016 9.96-.016h1.367c0-2.068.122-4.052-.138-6.03-.175-1.434-.519-2.815-1.167-4.105-1.458-2.93-3.946-4.343-7.114-4.694-3.785-.412-7.426.366-10.998 1.496-1.465.458-2.9 1.03-4.457 1.595a1107.7 1107.7 0 0 1-2.496-6.014c.352-.23.672-.466 1.03-.641 4.328-2.168 8.885-3.48 13.731-3.824 2.626-.183 5.198-.03 7.747.542 5.8 1.29 9.456 4.877 11.105 10.54.633 2.183.938 4.411.938 6.686-.007 10.792-.007 21.591-.007 32.383zM529.538 73.448h-13.242V22.282h9.525c.634 1.733 1.267 3.458 1.939 5.297 3.618-3.42 7.7-5.717 12.509-6.579 2.71-.488 5.709-.382 7.869.252-.45 4.251-.916 8.525-1.39 12.944-4.067-.992-8.074-1.229-12.081-.511-1.702.305-3.358.816-5.129 1.251zM0 1.846C2.793 1.228 5.58.617 8.357.006c.245.84.328 71.728.1 73.537H0zM100.583 1.855c2.816-.619 5.625-1.23 8.51-1.855v73.544h-8.51zM40.393 69.803c-2.205 1.724-4.365 3.411-6.647 5.197-7.45-9.19-14.86-18.325-22.34-27.56 6.526-8.617 13.059-17.249 19.669-25.972 2.251 1.64 4.441 3.22 6.754 4.9-5.419 6.861-10.8 13.661-16.272 20.591 6.213 7.617 12.532 15.15 18.836 22.844M112.057 47.44c6.58-8.685 13.09-17.286 19.669-25.972 2.259 1.634 4.45 3.221 6.754 4.9L122.2 46.983c6.29 7.61 12.54 15.173 18.852 22.813a2466.34 2466.34 0 0 1-6.648 5.197c-7.441-9.166-14.844-18.302-22.347-27.552"/></svg>