<svg xmlns="http://www.w3.org/2000/svg" xmlns:xlink="http://www.w3.org/1999/xlink" width="448.33148pt" height="75pt" viewBox="0 0 448.33147 74.999998"><symbol id="a" transform="translate(-589.867 -478.377)"><path d="M-2147483500-2147483500Z"/></symbol><use xlink:href="#a" width="100%" height="100%" transform="matrix(7.37 0 0 -7.37 15826957000 -15826957000)"/><use xlink:href="#a" width="100%" height="100%" transform="matrix(7.37 0 0 -7.37 15826957000 -15826957000)"/><use xlink:href="#a" width="100%" height="100%" transform="matrix(7.37 0 0 -7.37 15826957000 -15826957000)"/><symbol id="b" transform="translate(-589.867 -478.377)"><path d="M-2147483500-2147483500Z"/></symbol><use xlink:href="#b" width="100%" height="100%" transform="matrix(19.8991 0 0 -19.8991 42732999000 -42732998000)"/><use xlink:href="#b" width="100%" height="100%" transform="matrix(19.8991 0 0 -19.8991 42732999000 -42732998000)"/><use xlink:href="#b" width="100%" height="100%" transform="matrix(19.8991 0 0 -19.8991 42732999000 -42732998000)"/><use xlink:href="#a" width="100%" height="100%" transform="matrix(7.37 0 0 -7.37 15826957000 -15826957000)"/><use xlink:href="#a" width="100%" height="100%" transform="matrix(7.37 0 0 -7.37 15826957000 -15826957000)"/><use xlink:href="#a" width="100%" height="100%" transform="matrix(7.37 0 0 -7.37 15826957000 -15826957000)"/><use xlink:href="#a" width="100%" height="100%" transform="matrix(7.37 0 0 -7.37 15826957000 -15826957000)"/><path fill="#f4c11d" d="m465.379 56.75 7.195 8.873 2.113-1.648-6.095-7.372 5.262-6.654-2.14-1.557zm-3.716-14.714v23.165h2.735V41.435zM477.108 60.797c0-1.659.552-2.924 1.652-3.792 1.1-.869 2.7-1.305 4.802-1.305h3.153v-1.047c0-2.538-1.11-3.807-3.332-3.807-.714 0-1.462.102-2.243.302-.784.197-1.504.45-2.158.749l-.802-1.947c.812-.461 1.688-.816 2.633-1.066.939-.25 1.856-.376 2.75-.376 3.845 0 5.768 2.07 5.768 6.205v10.489h-2.022l-.327-1.8a9.827 9.827 0 0 1-2.6 1.533c-.925.358-1.8.538-2.634.538-1.448 0-2.58-.415-3.406-1.245-.822-.83-1.234-1.972-1.234-3.43m5.136 2.457c.376 0 .763-.05 1.167-.152a9.726 9.726 0 0 0 1.216-.386 6.696 6.696 0 0 0 1.14-.587c.354-.229.67-.475.948-.735V57.56h-2.844c-1.44 0-2.492.25-3.153.749-.66.499-.99 1.29-.99 2.369 0 1.719.836 2.577 2.516 2.577M496.934 65.202H494.2V42.037l2.735-.601zm7.315-16.813 2.141 1.56-5.262 6.651 6.095 7.372-2.112 1.652-7.196-8.873zM509.645 60.797c0-1.659.552-2.924 1.649-3.792 1.103-.869 2.703-1.305 4.805-1.305h3.15v-1.047c0-2.538-1.108-3.807-3.33-3.807-.713 0-1.462.102-2.246.302-.784.197-1.5.45-2.154.749l-.802-1.947c.812-.461 1.687-.816 2.63-1.066a10.73 10.73 0 0 1 2.752-.376c3.845 0 5.768 2.07 5.768 6.205v10.489h-2.024l-.327-1.8a9.718 9.718 0 0 1-2.602 1.533c-.92.358-1.796.538-2.629.538-1.448 0-2.584-.415-3.406-1.245-.823-.83-1.234-1.972-1.234-3.43m5.136 2.457c.372 0 .762-.05 1.167-.152a9.726 9.726 0 0 0 1.216-.386 6.696 6.696 0 0 0 2.084-1.322V57.56h-2.84c-1.441 0-2.492.25-3.153.749-.664.499-.991 1.29-.991 2.369 0 1.719.836 2.577 2.517 2.577M532.873 48.54c2.26 0 4.035.737 5.322 2.217 1.29 1.477 1.933 3.596 1.933 6.352 0 2.718-.64 4.806-1.92 6.264-1.275 1.46-3.057 2.19-5.335 2.19-2.26 0-4.036-.73-5.322-2.19-1.29-1.458-1.934-3.546-1.934-6.264 0-2.756.647-4.875 1.948-6.352 1.297-1.48 3.069-2.218 5.308-2.218m0 2.218c-1.427 0-2.524.538-3.287 1.617-.763 1.08-1.146 2.658-1.146 4.735 0 2.06.383 3.614 1.146 4.661.763 1.048 1.86 1.575 3.287 1.575 1.448 0 2.552-.527 3.315-1.575.762-1.047 1.145-2.6 1.145-4.66 0-2.078-.383-3.656-1.145-4.736-.763-1.079-1.867-1.617-3.315-1.617" style="stroke-width:3.5152" transform="matrix(2.49965 0 0 2.49965 -1153.995 -103.573)"/><path fill="#54555a" d="m544.335 63.904 3.065-3.065 3.062 3.065-3.062 3.065zm.594-21.042h4.907l-.654 14.852h-3.564zM553.787 48.616h2.97l.594 1.596c1.346-1.315 3.283-2.095 5.129-2.095 2 0 3.438.685 4.25 2.095 1.378-1.347 3.251-2.095 5.065-2.095 3.283 0 5.066 1.873 5.066 6.032v10.943h-4.19V54.398c0-1.842-.686-2.625-2.626-2.625-.876 0-1.937.19-2.626.47v12.849h-4.19V54.398c0-1.842-.658-2.625-2.595-2.625-.72 0-1.968.19-2.657.47v12.849h-4.19zM584.65 65.217v6.222h-4.19V48.615h2.97l.5 1.375c1.096-1.062 2.502-1.874 4.72-1.874 4.317 0 6.254 3.22 6.254 8.44 0 5.473-3.125 9.006-7.597 9.006a9.28 9.28 0 0 1-2.657-.345m0-13.132V62.31c.281.064.938.095 1.5.095 3.316 0 4.504-2.285 4.504-5.85 0-3.06-.72-5.064-3.442-5.064-.812 0-1.842.25-2.562.594M604.013 55.056h2.625v-.562c0-1.814-.562-2.847-3.033-2.847-1.53 0-2.939.313-4.44 1.096l-1.156-2.878c1.596-1.094 3.94-1.751 6.099-1.751 4.218 0 6.44 2.063 6.44 6.348v10.63h-2.94l-.47-1.406c-1.688 1.311-3.501 1.846-4.97 1.846-3.22 0-5.003-1.909-5.003-5.192 0-3.47 2.376-5.284 6.848-5.284m2.625 5.91v-3.22h-2.25c-2.252 0-3.44.907-3.44 2.562 0 1.188.688 1.972 2.066 1.972 1.438 0 2.876-.657 3.624-1.314M625.812 52.368c-1.188-.5-2.313-.876-4-.876-2.44 0-4.099 1.47-4.099 5.347 0 3.846 1.69 5.283 4.471 5.283 1.438 0 3.097-.47 4.222-.938l.97 2.907c-1.469.875-3.627 1.47-5.909 1.47-5.346 0-7.972-3.157-7.972-8.69 0-5.315 2.626-8.757 8.032-8.757 2.317 0 4.222.563 5.537 1.41zM628.577 48.928l2.626-.312V45.3l4.253-.907v4.222h4.94v3.156h-4.94v7.16c0 2.567.654 3.034 1.874 3.034.844 0 1.782-.218 2.72-.562l.971 2.939c-.875.562-2.847 1.22-4.816 1.22-3.47 0-5.002-2.127-5.002-6.349v-7.442h-2.626z" style="stroke-width:3.5152" transform="matrix(2.49965 0 0 2.49965 -1153.995 -103.573)"/></svg>