<svg xmlns="http://www.w3.org/2000/svg" width="191.981" height="19.915" viewBox="0 0 482 50"><path fill="#242424" fill-rule="evenodd" d="M7.3 32.551 21.443 50l4.149-3.243-11.978-14.5 10.343-13.086-4.208-3.064ZM0 3.609v45.563h5.373V2.43Zm30.353 36.9a8.934 8.934 0 0 1 3.247-7.456q3.24-2.563 9.434-2.565h6.2v-2.063q0-7.486-6.546-7.485a17.783 17.783 0 0 0-4.409.59A24.918 24.918 0 0 0 34.034 23l-1.578-3.832a21.811 21.811 0 0 1 5.174-2.093 21.059 21.059 0 0 1 5.4-.738q11.339 0 11.336 12.2v20.636H50.4l-.643-3.537a19.142 19.142 0 0 1-5.112 3.008 14.2 14.2 0 0 1-5.173 1.06 8.992 8.992 0 0 1-6.689-2.446 9.169 9.169 0 0 1-2.427-6.748m10.084 4.833a9.514 9.514 0 0 0 2.3-.295 18.77 18.77 0 0 0 2.385-.765 13.161 13.161 0 0 0 4.1-2.6v-7.54H43.64q-4.248 0-6.2 1.473a5.468 5.468 0 0 0-1.948 4.658q0 5.069 4.946 5.069m28.869 3.83h-5.372V3.609L69.31 2.43v46.743Zm14.375-33.067 4.207 3.065L77.55 32.257l11.975 14.5L85.378 50 71.239 32.55Zm10.605 24.4a8.94 8.94 0 0 1 3.242-7.457q3.246-2.563 9.437-2.565h6.194v-2.059q0-7.486-6.542-7.485a17.808 17.808 0 0 0-4.414.59A24.716 24.716 0 0 0 97.97 23l-1.579-3.832a21.85 21.85 0 0 1 5.17-2.093 21.067 21.067 0 0 1 5.4-.738q11.336 0 11.336 12.2v20.636h-3.975l-.642-3.537a19.111 19.111 0 0 1-5.113 3.008 14.2 14.2 0 0 1-5.17 1.06 8.991 8.991 0 0 1-6.691-2.446 9.163 9.163 0 0 1-2.424-6.748m10.089 4.833a9.551 9.551 0 0 0 2.3-.295 18.881 18.881 0 0 0 2.385-.765 13.067 13.067 0 0 0 2.239-1.15 13.294 13.294 0 0 0 1.861-1.446v-7.544h-5.584q-4.251 0-6.2 1.473a5.455 5.455 0 0 0-1.949 4.658q0 5.069 4.946 5.069M139.93 16.4q6.66 0 10.457 4.361t3.8 12.5q0 8.015-3.771 12.32t-10.487 4.3q-6.66 0-10.458-4.3t-3.8-12.32q0-8.133 3.827-12.5T139.93 16.4m0 4.361a7.425 7.425 0 0 0-6.456 3.183q-2.253 3.183-2.251 9.314 0 6.072 2.251 9.165a8.342 8.342 0 0 0 12.972 0q2.249-3.093 2.249-9.165 0-6.13-2.249-9.314a7.489 7.489 0 0 0-6.516-3.183m22.235-14.392L168.411 0l6.305 6.369-6.305 6.251Zm10.606 10.5v32.2h-8.6v-32.2h8.6Zm8.661-.354h6.068l1.238 3.3a16.6 16.6 0 0 1 4.89-3.038 14.021 14.021 0 0 1 5.245-1.091q5.361 0 8.249 3.214t2.887 9.289v20.526h-8.78V28.191a5.228 5.228 0 0 0-1.266-3.922 5.9 5.9 0 0 0-4.154-1.209 20.692 20.692 0 0 0-5.6.885v24.77h-8.78v-32.2Zm40.625-1.12 7.243 25.18 7.307-25.3 8.425 2.359-11.309 31.081h-8.9l-11.31-31.022Zm40.609.177q6.6 0 10.047 4.1t3.447 11.942a21.009 21.009 0 0 1-.118 2.182q-.12 1.12-.236 1.651h-19.15q.294 3.893 2.386 5.6t6.217 1.71a14.45 14.45 0 0 0 1.915-.147q1.089-.146 2.239-.412t2.21-.59a14.434 14.434 0 0 0 1.826-.679l1.885 5.9a19.612 19.612 0 0 1-2.356 1.032 28.84 28.84 0 0 1-2.858.884q-1.5.383-3.034.62a18.783 18.783 0 0 1-2.829.236q-8.132 0-12.2-4.276t-4.066-12.709q0-8.139 3.86-12.592t10.815-4.454ZM262.312 22q-5.538 0-5.715 7.608h11.254q0-4.127-1.266-5.868T262.312 22Zm27.929 3.3a2.609 2.609 0 0 0 1.355 2.241 23.634 23.634 0 0 0 4.832 2.064q5.007 1.712 7.041 3.981a8.3 8.3 0 0 1 2.033 5.751q0 4.954-3.152 7.608t-9.4 2.654a30.157 30.157 0 0 1-5.922-.62 38.068 38.068 0 0 1-5.922-1.681l1.65-6.546q1.119.354 2.533.737t2.829.678q1.414.3 2.651.5a13.11 13.11 0 0 0 2.122.207q4.359 0 4.36-2.831a2.463 2.463 0 0 0-1.149-2.152 11.577 11.577 0 0 0-1.856-1.062q-1.179-.559-3.123-1.268a28.4 28.4 0 0 1-4.331-1.828 10.71 10.71 0 0 1-2.8-2.094 6.6 6.6 0 0 1-1.5-2.654 12.973 12.973 0 0 1-.442-3.627 8.775 8.775 0 0 1 .884-3.922 9.35 9.35 0 0 1 2.445-3.1 11.572 11.572 0 0 1 3.771-2.034 15.278 15.278 0 0 1 4.861-.737 25.9 25.9 0 0 1 11.078 2.536l-2.356 6.199q-.826-.412-1.827-.8a17.4 17.4 0 0 0-2.092-.649 21.769 21.769 0 0 0-2.15-.413 14.272 14.272 0 0 0-1.945-.148 6.028 6.028 0 0 0-3.3.767 2.505 2.505 0 0 0-1.178 2.243Zm18.5-8.139 5.009-.649V10.2l8.72-1.887v8.2h9.31V23h-9.31v13.329a17.848 17.848 0 0 0 .206 3.038 5.5 5.5 0 0 0 .59 1.8 1.815 1.815 0 0 0 1.031.855 5.043 5.043 0 0 0 1.532.206 12.279 12.279 0 0 0 2.681-.324 23.5 23.5 0 0 0 2.622-.737l1.886 6.075a6.975 6.975 0 0 1-1.5.766 21.866 21.866 0 0 1-2.328.767 27.074 27.074 0 0 1-2.739.59 17.438 17.438 0 0 1-2.8.236q-9.9 0-9.9-12.621V23h-5.009v-5.838Zm29.578-.649h6.069l1.238 3.185a14.74 14.74 0 0 1 4.6-3.038 13.419 13.419 0 0 1 5.244-1.091q5.892 0 8.367 4.128a13.723 13.723 0 0 1 4.655-3.067 14.17 14.17 0 0 1 5.3-1.061q10.017 0 10.017 12.149v21h-8.721V28.073a6.283 6.283 0 0 0-.972-3.922q-.972-1.208-3.86-1.209a12.811 12.811 0 0 0-2.5.266 17.157 17.157 0 0 0-2.327.619v24.888h-8.721V28.073a6.283 6.283 0 0 0-.972-3.922q-.972-1.208-3.859-1.209a12.361 12.361 0 0 0-2.475.266 17.4 17.4 0 0 0-2.3.619v24.888h-8.78v-32.2Zm65.961-.943q6.6 0 10.046 4.1t3.447 11.942a20.736 20.736 0 0 1-.118 2.182q-.118 1.12-.235 1.651h-19.15q.294 3.893 2.386 5.6t6.217 1.71a14.436 14.436 0 0 0 1.914-.147q1.091-.146 2.239-.412t2.21-.59a14.4 14.4 0 0 0 1.827-.679l1.885 5.9a19.632 19.632 0 0 1-2.357 1.032 28.84 28.84 0 0 1-2.858.884q-1.5.383-3.034.62a18.78 18.78 0 0 1-2.828.236q-8.132 0-12.2-4.276t-4.061-12.708q0-8.139 3.859-12.592t10.813-4.452ZM403.928 22q-5.539 0-5.715 7.608h11.254q0-4.127-1.267-5.868T403.928 22Zm20.5-5.485h6.072l1.238 3.3a16.6 16.6 0 0 1 4.89-3.038 14.021 14.021 0 0 1 5.245-1.091q5.361 0 8.249 3.214t2.887 9.289v20.526h-8.78V28.191a5.228 5.228 0 0 0-1.266-3.922 5.9 5.9 0 0 0-4.154-1.209 20.692 20.692 0 0 0-5.6.885v24.77h-8.78v-32.2Zm33.291.649 5.009-.649V10.2l8.721-1.887v8.2h9.31V23h-9.31v13.329a17.848 17.848 0 0 0 .206 3.038 5.5 5.5 0 0 0 .589 1.8 1.815 1.815 0 0 0 1.031.855 5.048 5.048 0 0 0 1.532.206 12.265 12.265 0 0 0 2.681-.324 23.524 23.524 0 0 0 2.623-.737L482 47.24a6.927 6.927 0 0 1-1.5.766 21.77 21.77 0 0 1-2.327.767 27.1 27.1 0 0 1-2.74.59 17.435 17.435 0 0 1-2.8.236q-9.9 0-9.9-12.621V23h-5.009v-5.838Z"/></svg>