<svg xmlns="http://www.w3.org/2000/svg" width="871.18567mm" height="200mm" viewBox="0 0 871.18567 200"><defs><clipPath id="a" clipPathUnits="userSpaceOnUse"><path d="M1086 883.141h198v-44h-198z"/></clipPath></defs><path d="M-346.42 225.598v80.67h9.524V223.51zm12.941 51.24 25.059 30.894 7.353-5.743-21.227-25.672 18.33-23.168-7.458-5.425zM-274.755 299.486c1.31 0 2.662-.171 4.072-.522 1.407-.347 2.818-.8 4.226-1.355a22.986 22.986 0 0 0 3.97-2.035 23.144 23.144 0 0 0 3.303-2.559v-13.358h-9.9c-5.018 0-8.679.871-10.982 2.61-2.3 1.737-3.453 4.487-3.453 8.245 0 5.983 2.92 8.974 8.764 8.974m-17.878-8.556c0-5.775 1.915-10.179 5.751-13.204 3.827-3.025 9.403-4.54 16.717-4.54h10.981v-3.652c0-8.837-3.87-13.254-11.6-13.254-2.482 0-5.089.349-7.813 1.047-2.728.693-5.231 1.564-7.511 2.607l-2.796-6.783c2.83-1.602 5.884-2.835 9.167-3.706 3.277-.87 6.471-1.309 9.572-1.309 13.395 0 20.09 7.206 20.09 21.606v36.527h-7.04l-1.14-6.263c-2.83 2.297-5.848 4.07-9.058 5.325-3.207 1.252-6.26 1.877-9.167 1.877-5.038 0-8.987-1.442-11.854-4.333-2.863-2.886-4.3-6.867-4.3-11.945M-198.127 247.723l7.455 5.427-18.321 23.169 21.22 25.67-7.348 5.742-25.055-30.894zm-25.468 58.543h-9.525v-80.669l9.525-2.087zM-161.455 299.486c1.302 0 2.663-.171 4.074-.522 1.404-.347 2.817-.8 4.226-1.355 1.406-.559 2.73-1.24 3.968-2.035a23.594 23.594 0 0 0 3.298-2.559v-13.358h-9.895c-5.023 0-8.684.871-10.98 2.61-2.309 1.737-3.455 4.487-3.455 8.245 0 5.983 2.921 8.974 8.764 8.974m-17.879-8.556c0-5.775 1.916-10.179 5.745-13.204 3.836-3.025 9.403-4.54 16.724-4.54h10.976v-3.652c0-8.837-3.864-13.254-11.594-13.254-2.49 0-5.09.349-7.821 1.047-2.73.693-5.232 1.564-7.503 2.607l-2.797-6.783c2.83-1.602 5.883-2.835 9.16-3.706 3.275-.87 6.471-1.309 9.579-1.309 13.39 0 20.089 7.206 20.089 21.606v36.527h-7.045l-1.138-6.263c-2.832 2.297-5.845 4.07-9.059 5.325-3.211 1.252-6.263 1.877-9.162 1.877-5.045 0-8.994-1.442-11.859-4.333-2.865-2.886-4.295-6.867-4.295-11.945M-98.45 255.965c-4.97 0-8.784 1.879-11.441 5.635-2.661 3.757-3.99 9.255-3.99 16.492 0 7.166 1.329 12.575 3.99 16.225 2.657 3.654 6.471 5.483 11.44 5.483 5.037 0 8.886-1.83 11.547-5.483 2.657-3.65 3.985-9.059 3.985-16.225 0-7.237-1.328-12.735-3.985-16.492-2.661-3.756-6.51-5.635-11.547-5.635m0-7.721c7.87 0 14.05 2.574 18.531 7.721 4.489 5.15 6.736 12.526 6.736 22.127 0 9.459-2.224 16.734-6.681 21.812-4.45 5.077-10.652 7.617-18.586 7.617-7.869 0-14.05-2.54-18.53-7.617-4.491-5.078-6.736-12.353-6.736-21.812 0-9.6 2.258-16.978 6.78-22.127 4.523-5.147 10.687-7.721 18.486-7.721M-46.206 272.027h20.795c0-9.798-3.049-14.262-10.235-14.262-6.64 0-10.342 5.225-10.56 14.262m34.949 3.374c0 2.505-.327 5.225-.546 6.534h-34.293c.436 9.035 5.444 13.935 15.785 13.935 4.137 0 10.671-1.307 14.59-3.158l3.265 9.908c-4.68 2.72-13.282 4.9-19.703 4.9-19.272 0-28.743-10.452-28.743-30.377 0-19.161 9.906-30.374 25.692-30.374 15.351 0 23.953 10.342 23.953 28.632M-1.236 248.51H9.108l2.176 5.77c5.116-4.573 12.194-7.511 18.29-7.511 12.847 0 19.273 7.946 19.273 22.319v36.798h-14.59v-37.234c0-6.423-2.396-9.147-10.124-9.147-3.052 0-7.405.871-10.78 2.18v44.2H-1.236ZM55.928 249.598l9.145-1.088v-11.54l14.808-3.157v14.697h17.2v10.996h-17.2v24.931c0 8.929 2.287 10.56 6.532 10.56 2.939 0 6.205-.762 9.473-1.959l3.374 10.236c-3.05 1.959-9.908 4.245-16.767 4.245-12.084 0-17.42-7.403-17.42-22.1v-25.913h-9.145ZM118.861 272.027h20.794c0-9.798-3.047-14.262-10.233-14.262-6.64 0-10.342 5.225-10.56 14.262m34.946 3.374c0 2.505-.325 5.225-.543 6.534H118.97c.435 9.035 5.444 13.935 15.785 13.935 4.14 0 10.673-1.307 14.59-3.158l3.267 9.908c-4.68 2.72-13.282 4.9-19.705 4.9-19.273 0-28.743-10.452-28.743-30.377 0-19.161 9.906-30.374 25.693-30.374 15.352 0 23.951 10.342 23.951 28.632M177.875 262.554v43.331h-14.587v-57.374h10.45l2.286 6.315c4.9-5.119 11.76-8.058 17.964-8.058 1.85 0 3.484.109 4.9.544l-1.526 14.154c-2.284-.544-4.679-.98-8.383-.98-3.918 0-7.838.871-11.104 2.068M220.34 260.595v35.601c.98.22 3.264.328 5.226.328 11.54 0 15.679-7.95 15.679-20.36 0-10.67-2.505-17.637-11.978-17.637-2.83 0-6.423.87-8.926 2.068m0 45.726v21.667h-14.59v-79.477h10.344l1.743 4.79c3.807-3.702 8.707-6.532 16.437-6.532 15.027 0 21.776 11.212 21.776 29.394 0 19.054-10.888 31.357-26.457 31.357-3.049 0-5.66-.22-9.253-1.199M281.422 262.554v43.331h-14.589v-57.374h10.454l2.284 6.315c4.9-5.119 11.76-8.058 17.966-8.058 1.849 0 3.483.109 4.9.544l-1.526 14.154c-2.286-.544-4.68-.98-8.382-.98-3.92 0-7.839.871-11.107 2.068" style="fill:#000;fill-opacity:1;fill-rule:nonzero;stroke:none;stroke-width:2.16713" transform="translate(391.93 -173.497)"/><path d="M323.779 305.887h-14.59v-57.375h14.59zm-17.963-76.104 10.668-10.777 10.67 10.777-10.67 10.671z" style="fill:#000;fill-opacity:1;fill-rule:nonzero;stroke:none;stroke-width:2.16712" transform="translate(391.93 -173.497)"/><path d="M360.907 272.136c11.865 4.137 16.004 8.818 16.004 17.2 0 11.649-7.513 18.183-22.21 18.183-6.643 0-14.698-1.524-21.122-4.137l2.939-11.324c5.771 2.178 12.086 3.812 18.074 3.812 6.096 0 8.272-2.07 8.272-5.446 0-3.374-1.524-5.006-11.321-8.38-11.757-4.029-16.005-8.168-16.005-17.747 0-10.343 8.491-17.53 21.123-17.53 7.074 0 13.28 1.418 19.596 4.356l-4.03 10.56c-3.809-2.069-9.688-3.482-14.26-3.482-5.445 0-8.492 2.393-8.492 5.986 0 3.157 3.158 5.119 11.432 7.949M398.8 272.027h20.793c0-9.798-3.047-14.262-10.233-14.262-6.642 0-10.342 5.225-10.56 14.262m34.946 3.374c0 2.505-.325 5.225-.543 6.534h-34.297c.437 9.035 5.446 13.935 15.787 13.935 4.14 0 10.671-1.307 14.59-3.158l3.265 9.908c-4.681 2.72-13.28 4.9-19.706 4.9-19.27 0-28.742-10.452-28.742-30.377 0-19.161 9.908-30.374 25.695-30.374 15.35 0 23.951 10.342 23.951 28.632" style="fill:#000;fill-opacity:1;fill-rule:nonzero;stroke:none;stroke-width:2.16713" transform="translate(391.93 -173.497)"/></svg>