<svg xmlns="http://www.w3.org/2000/svg" width="665.5144pt" height="149.99995pt" viewBox="0 0 665.51439 149.99995"><g opacity="0.100006" transform="translate(-358.004 -204.427)"><clipPath id="a"><path d="M34.016 546.585h221.582V121.388H34.016Z"/></clipPath></g><g opacity="0.100006" transform="translate(-358.004 -204.427)"><clipPath id="b"><path d="M281.42 546.585h526.455V121.388H281.42Z"/></clipPath></g><g opacity="0.699997" transform="translate(-358.004 -204.427)"><clipPath id="c"><path d="M799.655 568.553h8.124v-7.428h-8.124z"/></clipPath></g><g opacity="0.100006" transform="translate(-358.004 -204.427)"><clipPath id="d"><path d="M34.257 73.701H255.2V34.016H34.257Z"/></clipPath></g><path fill="#ffcd00" d="M39.511 41.713v68.808h8.124V39.93Zm11.04 43.707 21.374 26.35 6.272-4.896-18.105-21.898 15.634-19.762-6.362-4.628zM100.64 104.738c1.118 0 2.272-.147 3.473-.446a28.295 28.295 0 0 0 3.606-1.155 19.453 19.453 0 0 0 3.385-1.736 19.661 19.661 0 0 0 2.819-2.183V87.825h-8.445c-4.28 0-7.403.741-9.369 2.224-1.96 1.484-2.944 3.83-2.944 7.034 0 5.103 2.491 7.655 7.476 7.655m-15.25-7.299c0-4.925 1.635-8.682 4.905-11.262 3.265-2.58 8.022-3.872 14.26-3.872h9.367v-3.116c0-7.537-3.301-11.304-9.895-11.304-2.116 0-4.34.296-6.666.89-2.327.593-4.46 1.335-6.405 2.226l-2.386-5.786a33 33 0 0 1 7.82-3.162c2.794-.74 5.52-1.114 8.165-1.114 11.426 0 17.134 6.144 17.134 18.427v31.157h-6.002l-.972-5.341c-2.415 1.959-4.99 3.47-7.728 4.542-2.736 1.068-5.34 1.6-7.82 1.6-4.296 0-7.663-1.23-10.109-3.695-2.443-2.462-3.668-5.86-3.668-10.19M166.003 60.585l6.359 4.63-15.629 19.76 18.103 21.898-6.27 4.897-21.37-26.35zm-21.725 49.937h-8.122v-68.81l8.122-1.781zM197.283 104.738c1.111 0 2.273-.147 3.474-.446a28.37 28.37 0 0 0 3.606-1.155 19.599 19.599 0 0 0 3.383-1.736 20.034 20.034 0 0 0 2.815-2.183V87.825h-8.441c-4.284 0-7.405.741-9.367 2.224-1.968 1.484-2.946 3.83-2.946 7.034 0 5.103 2.493 7.655 7.476 7.655m-15.25-7.299c0-4.925 1.635-8.682 4.9-11.262 3.272-2.58 8.021-3.872 14.265-3.872h9.363v-3.116c0-7.537-3.295-11.304-9.89-11.304-2.123 0-4.34.296-6.67.89-2.328.593-4.463 1.335-6.4 2.226l-2.388-5.786a33.058 33.058 0 0 1 7.815-3.162c2.793-.74 5.52-1.114 8.17-1.114 11.422 0 17.136 6.144 17.136 18.427v31.157h-6.01l-.97-5.341c-2.417 1.959-4.985 3.47-7.728 4.542-2.737 1.068-5.341 1.6-7.815 1.6-4.303 0-7.67-1.23-10.114-3.695-2.445-2.462-3.664-5.86-3.664-10.19M251.025 67.615c-4.24 0-7.493 1.603-9.758 4.807-2.271 3.204-3.403 7.894-3.403 14.067 0 6.113 1.132 10.726 3.403 13.84 2.265 3.117 5.519 4.676 9.758 4.676 4.296 0 7.58-1.56 9.849-4.675 2.265-3.115 3.398-7.728 3.398-13.841 0-6.173-1.133-10.863-3.398-14.067-2.27-3.204-5.553-4.807-9.85-4.807m0-6.585c6.712 0 11.983 2.194 15.807 6.585 3.829 4.393 5.746 10.686 5.746 18.874 0 8.069-1.898 14.274-5.7 18.605-3.794 4.33-9.084 6.497-15.852 6.497-6.712 0-11.985-2.166-15.808-6.497-3.83-4.33-5.745-10.536-5.745-18.605 0-8.188 1.928-14.48 5.785-18.874 3.859-4.39 9.114-6.585 15.768-6.585" style="stroke-width:1.47955"/><path fill="#4d4d4d" d="M299.792 71.565v30.366c.836.186 2.786.28 4.458.28 9.843 0 13.372-6.781 13.372-17.367 0-9.101-2.135-15.045-10.215-15.045-2.414 0-5.479.743-7.615 1.766m0 39.002v18.481h-12.445V61.257h8.823l1.487 4.086c3.249-3.159 7.429-5.573 14.022-5.573 12.816 0 18.572 9.565 18.572 25.074 0 16.252-9.285 26.745-22.566 26.745-2.6 0-4.829-.186-7.893-1.022M351.802 110.197H339.36V61.256h12.443zm-15.324-64.914 9.101-9.194 9.1 9.194-9.1 9.1zM397.493 72.4c-3.529-1.485-6.873-2.6-11.887-2.6-7.244 0-12.165 4.365-12.165 15.88 0 11.423 5.014 15.694 13.28 15.694 4.27 0 9.193-1.394 12.537-2.786l2.878 8.636c-4.365 2.601-10.773 4.365-17.552 4.365-15.88 0-23.68-9.379-23.68-25.817 0-15.787 7.8-26.001 23.866-26.001 6.873 0 12.536 1.67 16.436 4.178zM443.466 72.4c-3.528-1.485-6.872-2.6-11.886-2.6-7.244 0-12.165 4.365-12.165 15.88 0 11.423 5.014 15.694 13.279 15.694 4.271 0 9.194-1.394 12.538-2.786l2.877 8.636c-4.364 2.601-10.772 4.365-17.552 4.365-15.88 0-23.68-9.379-23.68-25.817 0-15.787 7.8-26.001 23.867-26.001 6.872 0 12.536 1.67 16.436 4.178zM465.573 86.144c0 10.402 3.437 15.787 10.494 15.787 7.15 0 10.4-5.385 10.4-15.787 0-10.866-3.342-16.716-10.4-16.716-6.966 0-10.494 5.85-10.494 16.716m33.617-.093c0 15.787-8.636 25.539-23.123 25.539-14.488 0-23.217-9.752-23.217-25.539 0-16.065 8.914-26.281 23.217-26.281 14.3 0 23.123 10.03 23.123 26.281M508.855 61.257h8.822l1.764 4.736c3.993-3.9 9.752-6.223 15.23-6.223 5.944 0 10.215 2.043 12.63 6.223 4.087-3.994 9.657-6.223 15.044-6.223 9.75 0 15.044 5.573 15.044 17.923v32.504h-12.443V78.436c0-5.48-2.045-7.8-7.802-7.8-2.6 0-5.756.557-7.8 1.392v38.17H536.9V78.435c0-5.48-1.95-7.8-7.707-7.8-2.137 0-5.852.557-7.895 1.392v38.17h-12.443zM614.357 97.938v-9.565h-6.686c-6.686 0-10.215 2.693-10.215 7.615 0 3.529 2.042 5.85 6.129 5.85 4.273 0 8.544-1.95 10.772-3.9m-7.8-17.552h7.8v-1.672c0-5.385-1.67-8.45-9.007-8.45-4.55 0-8.73.928-13.187 3.25l-3.436-8.543c4.736-3.25 11.7-5.2 18.108-5.2 12.538 0 19.131 6.128 19.131 18.852v31.573h-8.73l-1.393-4.18c-5.014 3.902-10.401 5.48-14.766 5.48-9.564 0-14.858-5.664-14.858-15.415 0-10.308 7.06-15.695 20.338-15.695" style="stroke-width:1.47955"/></svg>