<svg xmlns="http://www.w3.org/2000/svg" width="512.5" height="91.237999" viewBox="0 0 135.59895 24.140055"><path d="M68.296 13.85c-.235.33-.352.659-.352.993 0 .775.446 1.014 1.695 1.014h2.196c2.804 0 4.548 1.438 4.548 3.634 0 2.95-2.358 4.649-6.482 4.649-3.227 0-5.234-1.393-5.234-3.59 0-.964.451-1.911 1.321-2.78-.569-.43-.847-1.015-.847-1.796 0-1.064.49-2.028 1.482-2.904-1.08-.78-1.627-1.839-1.627-3.232 0-2.67 2.123-4.392 5.379-4.392 1.176 0 2.212.234 3.082.685l2.079-2.079 1.505 2.67-2.352.613c.585.73.964 1.488.964 2.503 0 2.597-2.074 4.247-5.278 4.247a8.412 8.412 0 0 1-2.08-.234m-.306 4.576c-.279.474-.424.947-.424 1.393 0 1.16.92 1.773 2.598 1.773 2.095 0 3.037-.569 3.037-1.817 0-.853-.752-1.35-1.883-1.35zm4.598-8.662c0-1.299-.685-1.84-2.212-1.84-1.533 0-2.219.541-2.219 1.84 0 1.254.636 1.867 2.219 1.867 1.577 0 2.212-.613 2.212-1.867M83.64 10.852h1.957v-.423c0-1.416-.803-2.08-2.19-2.08-1.06 0-2.431.307-3.54.848l-.942-2.313c1.226-.848 3.115-1.438 4.788-1.438 3.3 0 5.088 1.75 5.088 5.077v8.188h-2.424l-.357-1.087c-1.388 1.015-2.664 1.444-3.818 1.444-2.52 0-3.935-1.51-3.935-4.063 0-2.715 1.884-4.153 5.373-4.153m1.957 4.554v-2.358h-1.578c-1.767 0-2.664.636-2.664 1.912 0 .97.496 1.438 1.51 1.438.942 0 2.14-.468 2.732-.992M92.012 5.825h2.425l.496 1.276c1.064-1.042 2.525-1.655 3.94-1.655 1.578 0 2.687.546 3.345 1.655 1.059-1.065 2.591-1.655 3.985-1.655 2.664 0 4.007 1.627 4.007 4.865v8.4h-3.489v-8.26c0-1.438-.401-2.051-1.934-2.051-.635 0-1.393.161-1.934.35v9.961h-3.49v-8.26c0-1.438-.395-2.051-1.928-2.051-.64 0-1.37.161-1.912.35v9.961h-3.511zM124.09 11.867c0 .568-.073 1.248-.14 1.532h-7.664c.167 2.08 1.254 2.927 3.444 2.927.87 0 2.453-.351 3.278-.73l.752 2.363c-1.064.585-3.043 1.109-4.431 1.109-4.314 0-6.505-2.341-6.505-6.8 0-4.32 2.169-6.822 5.87-6.822 3.489 0 5.395 2.268 5.395 6.42m-7.826-.802h4.504c0-2.196-.613-3.043-2.218-3.043-1.483 0-2.235 1.014-2.286 3.043M131.97 11.064c2.665.92 3.629 2.029 3.629 3.896 0 2.62-1.694 4.108-5.016 4.108-1.489 0-3.256-.357-4.744-.92l.664-2.625c1.226.379 3.132.853 4.052.853 1.153 0 1.744-.38 1.744-1.132 0-.663-.401-1.042-2.452-1.794-2.731-.97-3.629-1.845-3.629-4.086 0-2.29 1.957-3.918 4.788-3.918 1.505 0 3.016.356 4.431 1.014l-.942 2.48c-.852-.451-2.263-.802-3.21-.802-1.132 0-1.79.423-1.79 1.204 0 .73.614 1.087 2.475 1.722" style="fill:#4d4d4d"/><path d="M2.157 18.795H0V.474L2.157 0ZM7.926 5.5 9.62 6.733l-4.152 5.262 4.804 5.83-1.666 1.304-5.674-7.017ZM12.184 15.311c0-1.31.435-2.307 1.305-2.999.863-.685 2.129-1.03 3.784-1.03h2.486v-.826c0-2.012-.875-3.01-2.625-3.01-.563 0-1.154.079-1.773.235-.613.156-1.181.357-1.7.59l-.63-1.538a8.693 8.693 0 0 1 2.074-.841 8.522 8.522 0 0 1 2.168-.296c3.032 0 4.554 1.633 4.554 4.905v8.294h-1.594l-.262-1.421a7.637 7.637 0 0 1-2.051 1.21c-.725.284-1.422.428-2.08.428-1.136 0-2.034-.328-2.68-.986-.652-.658-.976-1.56-.976-2.715m4.052 1.946c.296 0 .602-.04.92-.117.318-.084.641-.184.959-.312.317-.123.618-.28.897-.463.284-.178.53-.373.747-.58v-3.032h-2.24c-1.138 0-1.968.195-2.487.59-.523.397-.785 1.021-.785 1.874 0 1.36.663 2.04 1.99 2.04M27.819 18.795h-2.157V.474L27.819 0ZM33.593 5.5l1.689 1.232-4.152 5.262 4.804 5.83-1.66 1.304-5.675-7.017zM37.846 15.311c0-1.31.435-2.307 1.304-2.999.87-.685 2.13-1.03 3.785-1.03h2.486v-.826c0-2.012-.875-3.01-2.626-3.01-.562 0-1.153.079-1.772.235-.613.156-1.182.357-1.7.59l-.63-1.538a8.693 8.693 0 0 1 2.074-.841 8.522 8.522 0 0 1 2.168-.296c3.032 0 4.554 1.633 4.554 4.905v8.294h-1.6l-.256-1.421a7.552 7.552 0 0 1-2.052 1.21c-.724.284-1.42.428-2.073.428-1.143 0-2.04-.328-2.687-.986-.652-.658-.975-1.56-.975-2.715m4.052 1.946c.296 0 .602-.04.92-.117.323-.084.64-.184.958-.312.318-.123.62-.28.898-.463.279-.178.53-.373.747-.58v-3.032h-2.24c-1.138 0-1.968.195-2.487.59-.524.397-.78 1.021-.78 1.874 0 1.36.658 2.04 1.984 2.04M56.167 5.618c1.784 0 3.183.586 4.197 1.756 1.02 1.165 1.527 2.843 1.527 5.022 0 2.152-.501 3.801-1.516 4.955-1.003 1.154-2.408 1.728-4.208 1.728-1.784 0-3.183-.574-4.197-1.728-1.014-1.154-1.527-2.803-1.527-4.955 0-2.18.513-3.857 1.538-5.022 1.026-1.17 2.42-1.756 4.186-1.756m0 1.756c-1.126 0-1.99.424-2.592 1.276-.602.853-.903 2.102-.903 3.746 0 1.628.301 2.86.903 3.684.602.83 1.466 1.249 2.592 1.249 1.143 0 2.012-.418 2.614-1.249.602-.825.903-2.056.903-3.684 0-1.644-.3-2.893-.903-3.746-.602-.852-1.471-1.276-2.614-1.276" style="fill:#ffcd00"/></svg>